<?xml version="1.0" encoding="UTF-8"?>
<svg id="Layer_2" xmlns="http://www.w3.org/2000/svg" version="1.1" viewBox="0 0 286.8 21.9">
  <!-- Generator: Adobe Illustrator 29.5.1, SVG Export Plug-In . SVG Version: 2.1.0 Build 141)  -->
  <defs>
    <style>
      .st0 {
        fill: #fff;
      }

      .st1 {
        fill: #cbe70f;
      }
    </style>
  </defs>
  <g id="Layer_1-2">
    <g>
      <g>
        <g>
          <path class="st0" d="M25.2,11.2c.8-.6,1.4-1.2,1.9-1.6s.8-.9,1.1-1.3.5-.9.5-1.3,0-.6-.2-.8c-.1-.2-.4-.3-.7-.3s-.5,0-.7.3c-.2.2-.3.6-.3,1h-2c0-.7.2-1.2.4-1.7.3-.5.6-.8,1.1-1s1-.3,1.5-.3c1,0,1.7.2,2.1.7.5.5.7,1.1.7,1.9s-.3,1.6-.9,2.4c-.6.7-1.3,1.4-2.2,2.1h3.2v1.7h-6v-1.5c.3-.2.4-.3.4-.3h.1Z"/>
          <path class="st0" d="M32.7,4.9c.5-.5,1.2-.7,2.2-.7s1.1,0,1.5.3.8.5,1,.8.3.8.3,1.2,0,1-.4,1.3c-.3.3-.6.6-.9.7h0c.5.2.8.4,1.1.8.3.4.4.8.4,1.4s0,.9-.3,1.3-.6.7-1,.9-1,.3-1.5.3c-1,0-1.7-.2-2.3-.7s-.9-1.2-.9-2.1h2c0,.4,0,.6.3.8s.5.3.8.3.5,0,.7-.3c.2-.2.3-.4.3-.7s0-.7-.4-.8-.6-.3-1.2-.3h-.4v-1.7h.4c.4,0,.7,0,1-.2s.4-.4.4-.8,0-.5-.2-.7-.4-.2-.7-.2-.5,0-.7.3c-.2.2-.2.4-.3.7h-2c0-.9.3-1.5.8-2h0Z"/>
          <path class="st0" d="M44.6,5.9l-3,7.2h-2.1l3-7h-3.7v-1.8h5.8v1.5h0Z"/>
          <path class="st0" d="M46.2,5.4c.5-.8,1.4-1.2,2.6-1.2s2,.4,2.6,1.2.8,1.9.8,3.2-.3,2.5-.8,3.3-1.4,1.2-2.6,1.2-2-.4-2.6-1.2-.8-1.9-.8-3.3.3-2.5.8-3.2ZM49.9,6.8c-.2-.4-.5-.7-1.1-.7s-.9.2-1.1.7c-.2.4-.3,1.1-.3,1.9v1.4c0,.4.2.6.4.9.2.2.5.3.9.3s.7-.1.9-.3.3-.5.4-.9v-1.4c0-.8,0-1.4-.3-1.9h.2Z"/>
          <path class="st0" d="M56.1,11.2c.8-.6,1.4-1.2,1.8-1.6s.8-.9,1.2-1.3.5-.9.5-1.3,0-.6-.2-.8c-.2-.2-.4-.3-.7-.3s-.5,0-.7.3-.3.6-.3,1h-2c0-.7.2-1.2.4-1.7.3-.5.6-.8,1.1-1s1-.3,1.5-.3c1,0,1.7.2,2.2.7s.7,1.1.7,1.9-.3,1.6-.9,2.4c-.6.7-1.3,1.4-2.2,2.1h3.2v1.7h-6v-1.5c.3-.2.4-.3.4-.3h0Z"/>
          <path class="st0" d="M63.6,4.9c.5-.5,1.2-.7,2.2-.7s1.1,0,1.5.3.8.5,1,.8.3.8.3,1.2,0,1-.4,1.3-.6.6-.9.7h0c.5.2.8.4,1.1.8.3.4.4.8.4,1.4s0,.9-.3,1.3c-.2.4-.6.7-1,.9s-.9.3-1.6.3c-1,0-1.7-.2-2.3-.7-.6-.5-.9-1.2-.9-2.1h2c0,.4,0,.6.3.8s.5.3.8.3.6,0,.7-.3c.2-.2.3-.4.3-.7s0-.7-.4-.8-.6-.3-1.2-.3h-.4v-1.7h.4c.4,0,.7,0,1-.2s.4-.4.4-.8,0-.5-.2-.7-.4-.2-.7-.2-.5,0-.7.3c-.2.2-.2.4-.3.7h-2c0-.9.3-1.5.8-2h0Z"/>
          <path class="st0" d="M76.1,6.2h-3.7v1.7c.2-.2.4-.3.7-.4.3,0,.6-.2.9-.2.6,0,1.1,0,1.5.4s.7.6.9,1.1c.2.4.3.9.3,1.4,0,.9-.3,1.7-.8,2.2-.5.6-1.3.8-2.2.8s-1.2-.1-1.7-.3-.8-.5-1.1-.9c-.3-.4-.4-.8-.4-1.4h2c0,.2.2.4.3.6.2.2.4.2.8.2s.7-.1.8-.4c.2-.2.3-.6.3-1s0-.7-.3-.9-.5-.3-.8-.3-.5,0-.7.2c-.2.1-.3.3-.3.5h-2v-5.2h5.6v1.8h-.1Z"/>
          <path class="st0" d="M78.6,4.9c.5-.5,1.2-.7,2.2-.7s1.1,0,1.5.3.8.5,1,.8.3.8.3,1.2,0,1-.4,1.3-.6.6-.9.7h0c.5.2.8.4,1.1.8.3.4.4.8.4,1.4s0,.9-.3,1.3c-.2.4-.6.7-1,.9s-.9.3-1.6.3c-1,0-1.7-.2-2.3-.7s-.9-1.2-.9-2.1h2c0,.4,0,.6.3.8s.5.3.8.3.6,0,.7-.3c.2-.2.3-.4.3-.7s0-.7-.4-.8-.6-.3-1.2-.3h-.4v-1.7h.4c.4,0,.7,0,1-.2s.4-.4.4-.8,0-.5-.2-.7-.4-.2-.7-.2-.5,0-.7.3c-.2.2-.2.4-.3.7h-2c0-.9.3-1.5.8-2h0Z"/>
        </g>
        <g>
          <path class="st0" d="M131.4,5.4c-.2-.2-.3-.5-.3-.8s.1-.6.3-.8.5-.3.9-.3.6,0,.9.3.3.5.3.8-.1.6-.3.8-.5.3-.9.3-.6,0-.9-.3ZM133.3,6.4v6.7h-2.1v-6.7s2.1,0,2.1,0Z"/>
          <path class="st0" d="M140.8,7.1c.5.5.7,1.2.7,2.1v3.9h-2v-3.6c0-.4-.1-.8-.4-1-.2-.2-.5-.4-.9-.4s-.7.1-.9.4-.4.6-.4,1v3.6h-2.1v-6.7h2.1v.9c.2-.3.5-.5.8-.7.4-.2.8-.3,1.2-.3.8,0,1.4.2,1.9.8h0Z"/>
          <path class="st0" d="M146.3,8.1h-1.1v5h-2.1v-5h-.7v-1.7h.7v-.2c0-.8.2-1.5.7-1.9s1.2-.6,2.1-.6.3,0,.3,0v1.7c-.4,0-.7,0-.8.2s-.2.4-.2.7h1.1v1.7h0Z"/>
          <path class="st0" d="M148.5,12.8c-.5-.3-.9-.7-1.2-1.2s-.4-1.1-.4-1.8.1-1.3.5-1.8c.3-.5.7-.9,1.2-1.2s1.1-.4,1.8-.4,1.2,0,1.8.4.9.7,1.2,1.2.5,1.1.5,1.8-.1,1.3-.5,1.8c-.3.5-.7.9-1.3,1.2s-1.1.4-1.8.4-1.2-.1-1.8-.4h0ZM151.3,11c.3-.3.4-.7.4-1.2s-.1-.9-.4-1.2c-.3-.3-.6-.4-1-.4s-.7.1-1,.4c-.3.3-.4.7-.4,1.2s.1.9.4,1.2.6.4,1,.4.7-.1,1-.4h0Z"/>
          <path class="st0" d="M164,5.6c.7.4,1.2.9,1.6,1.5s.6,1.4.6,2.2-.1,1.3-.4,1.9-.6,1.1-1,1.4-1,.5-1.6.5-.8,0-1.1-.2-.5-.4-.6-.7c-.2.3-.5.6-.9.7-.4.2-.7.3-1.1.3-.6,0-1.1-.2-1.4-.5-.3-.4-.5-.8-.5-1.5s.1-1.1.4-1.6c.2-.5.6-.9,1-1.2s.9-.5,1.4-.5,1.1.2,1.4.7v-.6h1.8l-.5,3v.4c0,.4.2.5.5.5s.7-.2.9-.7.3-1.1.3-1.7c0-.9-.3-1.6-.9-2.2s-1.4-.8-2.4-.8-1.7.2-2.4.7c-.7.4-1.3,1-1.7,1.8s-.6,1.6-.6,2.5.3,1.7.9,2.3,1.4.8,2.4.8,1.5-.1,2.1-.4l.3,1.3c-.8.3-1.7.5-2.6.5s-1.7-.2-2.4-.5c-.7-.4-1.2-.9-1.6-1.5-.4-.6-.6-1.4-.6-2.3s.3-2.3.9-3.3c.6-1,1.4-1.8,2.4-2.3,1-.6,2.1-.8,3.3-.8s1.8.2,2.5.5h0l-.4-.2ZM160.9,11.5c.2-.1.4-.3.5-.6.1-.2.2-.5.2-.7s0-.5-.2-.7c-.1-.2-.4-.3-.6-.3s-.6.1-.9.5c-.2.3-.4.7-.4,1.1s0,.5.2.6c.1.2.3.2.6.2s.4,0,.6-.2h0Z"/>
          <path class="st0" d="M169,12.9c-.5-.2-.8-.5-1.1-.8-.3-.4-.4-.7-.4-1.2h2c0,.2.1.4.3.6s.4.2.7.2.4,0,.6-.1c.1-.1.2-.2.2-.4s-.1-.3-.3-.4c-.2,0-.5-.2-1-.3s-.9-.2-1.2-.4-.6-.3-.8-.6-.4-.6-.4-1.1.1-.7.3-1.1.5-.6.9-.8c.4-.2.9-.3,1.5-.3s1.5.2,2,.6.8,1,.8,1.7h-1.9c0-.2-.1-.4-.3-.6-.2,0-.4-.2-.7-.2s-.4,0-.6,0-.2.2-.2.4.1.3.3.4c.2.1.5.2.9.3.5.1.9.2,1.2.4s.6.3.8.6.4.6.4,1.1-.1.7-.3,1.1-.5.6-.9.7-.9.3-1.4.3-1.1-.1-1.6-.3h.2Z"/>
          <path class="st0" d="M177.6,11.2l1.4-4.8h2.2l-2.4,6.7h-2.5l-2.4-6.7h2.2l1.4,4.8h.1Z"/>
          <path class="st0" d="M188.3,10.2h-4.6c0,.4.2.7.4.9s.5.3.9.3.9-.2,1.1-.6h2.2c-.1.4-.3.8-.6,1.2s-.7.6-1.1.8-.9.3-1.5.3-1.2-.1-1.8-.4-.9-.7-1.2-1.2-.4-1.1-.4-1.8.1-1.3.4-1.8c.3-.5.7-.9,1.2-1.2.5-.3,1.1-.4,1.8-.4s1.2,0,1.7.4.9.7,1.2,1.2.4,1.1.4,1.8,0,.4,0,.6h0ZM186.3,9.1c0-.4-.1-.6-.4-.8s-.5-.3-.9-.3-.6,0-.9.3c-.2.2-.4.5-.4.9h2.6,0Z"/>
          <path class="st0" d="M195.4,7.1c.5.5.7,1.2.7,2.1v3.9h-2v-3.6c0-.4-.1-.8-.4-1-.2-.2-.5-.4-.9-.4s-.7.1-.9.4-.4.6-.4,1v3.6h-2.1v-6.7h2.1v.9c.2-.3.5-.5.8-.7.4-.2.8-.3,1.2-.3.8,0,1.4.2,1.9.8h0Z"/>
          <path class="st0" d="M198.7,12.9c-.5-.2-.8-.5-1.1-.8-.3-.4-.4-.7-.4-1.2h2c0,.2.1.4.3.6s.4.2.7.2.4,0,.6-.1c.1-.1.2-.2.2-.4s-.1-.3-.3-.4c-.2,0-.5-.2-1-.3s-.9-.2-1.2-.4-.6-.3-.8-.6-.4-.6-.4-1.1.1-.7.3-1.1.5-.6.9-.8c.4-.2.9-.3,1.5-.3s1.5.2,2,.6.8,1,.8,1.7h-1.9c0-.2-.1-.4-.3-.6-.2,0-.4-.2-.7-.2s-.4,0-.6,0-.2.2-.2.4.1.3.3.4c.2.1.5.2.9.3.5.1.9.2,1.2.4s.6.3.8.6.4.6.4,1.1-.1.7-.3,1.1-.5.6-.9.7-.9.3-1.4.3-1.1-.1-1.6-.3h.2Z"/>
          <path class="st0" d="M205.4,12.9c-.5-.2-.8-.5-1.1-.8-.3-.4-.4-.7-.4-1.2h2c0,.2.1.4.3.6s.4.2.7.2.4,0,.6-.1c.1-.1.2-.2.2-.4s-.1-.3-.3-.4c-.2,0-.5-.2-1-.3s-.9-.2-1.2-.4-.6-.3-.8-.6-.4-.6-.4-1.1.1-.7.3-1.1.5-.6.9-.8c.4-.2.9-.3,1.5-.3s1.5.2,2,.6.8,1,.8,1.7h-1.9c0-.2-.1-.4-.3-.6-.2,0-.4-.2-.7-.2s-.4,0-.6,0-.2.2-.2.4.1.3.3.4c.2.1.5.2.9.3.5.1.9.2,1.2.4s.6.3.8.6.4.6.4,1.1-.1.7-.3,1.1-.5.6-.9.7-.9.3-1.4.3-1.1-.1-1.6-.3h.2Z"/>
          <path class="st0" d="M212.2,12.8c-.5-.3-.9-.7-1.2-1.2s-.4-1.1-.4-1.8.1-1.3.5-1.8c.3-.5.7-.9,1.2-1.2s1.1-.4,1.8-.4,1.2,0,1.8.4.9.7,1.2,1.2.5,1.1.5,1.8-.1,1.3-.5,1.8c-.3.5-.7.9-1.3,1.2s-1.1.4-1.8.4-1.2-.1-1.8-.4h0ZM215,11c.3-.3.4-.7.4-1.2s-.1-.9-.4-1.2c-.3-.3-.6-.4-1-.4s-.7.1-1,.4c-.3.3-.4.7-.4,1.2s.1.9.4,1.2.6.4,1,.4.7-.1,1-.4h0Z"/>
          <path class="st0" d="M224.5,7.1c.5.5.7,1.2.7,2.1v3.9h-2v-3.6c0-.4-.1-.8-.4-1-.2-.2-.5-.4-.9-.4s-.7.1-.9.4-.4.6-.4,1v3.6h-2.1v-6.7h2.1v.9c.2-.3.5-.5.8-.7.4-.2.8-.3,1.2-.3.8,0,1.4.2,1.9.8h0Z"/>
          <path class="st0" d="M226.6,7.9c.3-.5.6-.9,1.1-1.2.4-.3.9-.4,1.5-.4s.8,0,1.2.3c.4.2.6.4.9.7v-3.1h2.1v8.9h-2.1v-1c-.2.3-.5.6-.8.8-.4.2-.8.3-1.2.3s-1.1-.1-1.5-.4c-.4-.3-.8-.7-1.1-1.2s-.4-1.1-.4-1.8.1-1.3.4-1.8h0ZM230.8,8.5c-.3-.3-.6-.4-1-.4s-.8.1-1,.4c-.3.3-.4.7-.4,1.2s.1.9.4,1.2c.3.3.6.4,1,.4s.8-.1,1-.4c.3-.3.4-.7.4-1.2s-.1-.9-.4-1.2h0Z"/>
          <path class="st0" d="M241.1,10.2h-4.6c0,.4.2.7.4.9s.5.3.9.3.9-.2,1.1-.6h2.2c-.1.4-.3.8-.6,1.2s-.7.6-1.1.8-.9.3-1.5.3-1.2-.1-1.8-.4-.9-.7-1.2-1.2-.4-1.1-.4-1.8.1-1.3.4-1.8c.3-.5.7-.9,1.2-1.2.5-.3,1.1-.4,1.8-.4s1.2,0,1.7.4.9.7,1.2,1.2.4,1.1.4,1.8,0,.4,0,.6h0ZM239,9.1c0-.4-.1-.6-.4-.8s-.5-.3-.9-.3-.6,0-.9.3c-.2.2-.4.5-.4.9h2.6,0Z"/>
          <path class="st0" d="M243.4,12.9c-.5-.2-.8-.5-1.1-.8-.3-.4-.4-.7-.4-1.2h2c0,.2.1.4.3.6s.4.2.7.2.4,0,.6-.1c.1-.1.2-.2.2-.4s-.1-.3-.3-.4c-.2,0-.5-.2-1-.3s-.9-.2-1.2-.4-.6-.3-.8-.6-.4-.6-.4-1.1.1-.7.3-1.1.5-.6.9-.8c.4-.2.9-.3,1.5-.3s1.5.2,2,.6.8,1,.8,1.7h-1.9c0-.2-.1-.4-.3-.6-.2,0-.4-.2-.7-.2s-.4,0-.6,0-.2.2-.2.4.1.3.3.4c.2.1.5.2.9.3.5.1.9.2,1.2.4s.6.3.8.6.4.6.4,1.1-.1.7-.3,1.1-.5.6-.9.7-.9.3-1.4.3-1.1-.1-1.6-.3h.2Z"/>
          <path class="st0" d="M249,5.4c-.2-.2-.3-.5-.3-.8s.1-.6.3-.8.5-.3.9-.3.6,0,.9.3.3.5.3.8-.1.6-.3.8-.5.3-.9.3-.6,0-.9-.3ZM250.9,6.4v6.7h-2.1v-6.7s2.1,0,2.1,0Z"/>
          <path class="st0" d="M256.2,6.6c.4.2.6.4.8.8v-.9h2v6.7c0,.6-.1,1.2-.4,1.7-.2.5-.6.9-1.1,1.2-.5.3-1.1.4-1.9.4s-1.8-.2-2.4-.7c-.6-.5-1-1.1-1.1-1.9h2c0,.3.2.5.5.6s.5.2.9.2.8-.1,1-.4.4-.6.4-1.2v-.9c-.2.3-.5.6-.8.8-.4.2-.8.3-1.2.3s-1.1-.1-1.5-.4c-.4-.3-.8-.7-1.1-1.2s-.4-1.1-.4-1.8.1-1.3.4-1.8.6-.9,1.1-1.2.9-.4,1.5-.4.9,0,1.2.3h0v-.2ZM256.6,8.5c-.3-.3-.6-.4-1-.4s-.8.1-1,.4c-.3.3-.4.7-.4,1.2s.1.9.4,1.2c.3.3.6.4,1,.4s.8-.1,1-.4c.3-.3.4-.7.4-1.2s-.1-.9-.4-1.2h0Z"/>
          <path class="st0" d="M266.5,7.1c.5.5.7,1.2.7,2.1v3.9h-2v-3.6c0-.4-.1-.8-.4-1-.2-.2-.5-.4-.9-.4s-.7.1-.9.4-.4.6-.4,1v3.6h-2v-6.7h2v.9c.2-.3.5-.5.8-.7.4-.2.8-.3,1.2-.3.8,0,1.4.2,1.9.8h0Z"/>
          <path class="st0" d="M268.7,12.9c-.2-.2-.3-.5-.3-.8s.1-.6.3-.8c.2-.2.5-.3.9-.3s.6.1.9.3c.2.2.3.5.3.8s-.1.6-.3.8c-.2.2-.5.3-.9.3s-.6-.1-.9-.3Z"/>
          <path class="st0" d="M272,7.9c.3-.5.6-.9,1.1-1.2s1-.4,1.5-.4.8,0,1.2.3c.4.2.6.4.9.7v-3.1h2v8.9h-2v-1c-.2.3-.5.6-.8.8-.4.2-.8.3-1.2.3s-1-.1-1.5-.4c-.5-.3-.8-.7-1.1-1.2s-.4-1.1-.4-1.8.1-1.3.4-1.8h-.1ZM276.2,8.5c-.3-.3-.6-.4-1-.4s-.8.1-1,.4c-.3.3-.4.7-.4,1.2s.1.9.4,1.2.6.4,1,.4.8-.1,1-.4c.3-.3.4-.7.4-1.2s-.1-.9-.4-1.2h0Z"/>
          <path class="st0" d="M284.3,13.1l-2-2.8v2.8h-2V4.2h2v4.9l2-2.7h2.5l-2.8,3.4,2.8,3.3s-2.5,0-2.5,0Z"/>
        </g>
      </g>
      <path class="st1" d="M119.2.7h-16.4c-1.5,0-2.7,1.2-2.7,2.7v11.7c0,1.5,1.2,2.7,2.7,2.7h16.4c1.5,0,2.7-1.2,2.7-2.7V3.4c0-1.5-1.2-2.7-2.7-2.7h0ZM118.5,5.2l-7,5.5c-.3.2-.7.2-1,0l-7-5.5c-.3-.3-.4-.8-.2-1.1.3-.3.8-.4,1.1-.2h0l6.6,5.1,6.6-5.1c.3-.3.8-.2,1.1.2.2.3.2.8,0,1.1h0Z"/>
      <path class="st1" d="M17.5,21.9c-1,0-2.3-.4-4.3-1.5-2.4-1.4-4.3-2.6-6.8-5.1s-3.5-3.8-5.1-6.8C-.4,5.3,0,3.6.3,2.9c.4-.9,1-1.4,1.8-1.9.4-.3.9-.5,1.4-.7h0C3.8.2,4.2,0,4.7.2c.3,0,.6.4,1,.8.9.9,2.1,2.8,2.6,3.8.3.7.5,1.1.5,1.5s-.3,1-.6,1.5c0,0-.1.2-.2.2-.4.5-.4.6-.4.9,0,.5.9,2,2.3,3.3s2.8,2.1,3.3,2.2c.3,0,.4,0,.9-.4l.2-.2c.5-.4.9-.7,1.5-.7h0c.5,0,.9.2,1.6.6s2.9,1.6,3.8,2.5.7.7.8,1c.2.5,0,.8-.1,1.1h0c-.2.6-.5,1.1-.8,1.5-.5.8-1,1.4-1.9,1.8-.5.2-1,.3-1.4.3h-.3Z"/>
    </g>
  </g>
</svg>