<?xml version="1.0" encoding="UTF-8"?>
<svg id="Lag_2" data-name="Lag 2" xmlns="http://www.w3.org/2000/svg" viewBox="0 0 1182.75 156.52">
  <defs>
    <style>
      .cls-1 {
        fill: #333;
      }

      .cls-2 {
        fill: #ff5d38;
      }
    </style>
  </defs>
  <g id="Lag_1-2" data-name="Lag 1">
    <g>
      <path class="cls-1" d="M59.55,26.64c-4.85-7.19-12.04-10.78-21.42-10.78-11.56,0-23.6,6.1-23.6,20.01,0,29.85,56.74,14.06,56.74,53.92,0,20.16-18.91,32.04-36.42,32.04-13.44,0-26.41-4.84-34.85-16.41l10.16-7.34c4.69,8.13,13.59,13.44,25.16,13.44s23.76-7.19,23.76-20.16c0-31.26-56.74-13.91-56.74-54.39C2.35,15.55,20.16,5.54,38.13,5.54c12.51,0,22.51,3.44,31.26,13.44l-9.85,7.66Z"/>
      <path class="cls-1" d="M124.79,119.02h-11.56l-29.7-73.14h12.35l23.29,61.58h.31l23.29-61.58h11.72l-29.69,73.14Z"/>
      <path class="cls-1" d="M178.37,89.98c4.03,14.18,17.13,23.42,31.4,20.65,10.74-2.09,17.86-9.69,20.6-16.9l9.08,4.92c-6.35,12.38-16.07,18.89-27.89,21.19-21.32,4.14-40.26-8.89-44.47-30.53-4.21-21.64,8.47-40.82,28.87-44.78,21.82-4.08,37.53,9.58,41.34,29.22l.9,4.6-59.83,11.63ZM225.54,72.21c-2.65-13.65-13.22-21.31-27.79-18.48-13.2,2.56-22.98,16.09-20.69,27.91l48.48-9.42Z"/>
      <path class="cls-1" d="M270.93,45.87c.47,3.91.47,7.82.47,11.72h.32c4.53-7.97,14.85-13.6,24.53-13.6,18.6,0,27.51,10.47,27.51,28.6v46.42h-10.31v-40.48c0-16.26-4.53-25.16-19.85-25.16-2.19,0-22.19,1.41-22.19,28.14v37.51h-10.31v-57.05c0-3.91-.47-10.79-.78-16.1h10.63Z"/>
      <path class="cls-1" d="M386.75,63.22c-3.12-5.94-8.28-9.85-15.79-9.85s-15.16,3.12-15.16,10.94c0,6.88,4.84,9.38,14.38,11.57l10.47,2.5c10.16,2.35,17.82,9.69,17.82,20.01,0,15.94-14.23,22.51-28.45,22.51-11.1,0-21.26-3.91-28.13-14.23l8.91-6.1c4.22,6.56,10.63,10.94,19.22,10.94s17.19-3.75,17.19-12.2c0-7.34-6.25-9.85-13.91-11.72l-10-2.35c-5-1.25-18.75-5.32-18.75-19.23,0-15.16,13.28-22.04,27.04-22.04,10.16,0,19.7,3.6,24.38,13.13l-9.22,6.1Z"/>
      <path class="cls-1" d="M453.33,63.22c-3.12-5.94-8.28-9.85-15.79-9.85s-15.16,3.12-15.16,10.94c0,6.88,4.84,9.38,14.38,11.57l10.47,2.5c10.16,2.35,17.82,9.69,17.82,20.01,0,15.94-14.22,22.51-28.45,22.51-11.1,0-21.26-3.91-28.13-14.23l8.91-6.1c4.22,6.56,10.63,10.94,19.22,10.94s17.19-3.75,17.19-12.2c0-7.34-6.25-9.85-13.91-11.72l-10-2.35c-5-1.25-18.75-5.32-18.75-19.23,0-15.16,13.28-22.04,27.04-22.04,10.16,0,19.7,3.6,24.38,13.13l-9.22,6.1Z"/>
      <path class="cls-1" d="M516.17,120.89c-22.66,0-38.76-16.41-38.76-38.45s16.1-38.45,38.76-38.45,38.92,16.41,38.92,38.45-16.1,38.45-38.92,38.45ZM516.17,53.37c-16.88,0-27.51,12.66-27.51,29.07s10.63,29.07,27.51,29.07,27.66-12.66,27.66-29.07-10.63-29.07-27.66-29.07Z"/>
      <path class="cls-1" d="M583.68,45.87c.47,3.91.47,7.82.47,11.72h.32c4.53-7.97,14.85-13.6,24.53-13.6,18.6,0,27.51,10.47,27.51,28.6v46.42h-10.31v-40.48c0-16.26-4.53-25.16-19.85-25.16-2.19,0-22.19,1.41-22.19,28.14v37.51h-10.31v-57.05c0-3.91-.47-10.79-.78-16.1h10.63Z"/>
      <path class="cls-1" d="M692.78,8.36h43.6c29.07,0,56.27,17.82,56.27,55.33s-32.04,55.33-58.61,55.33h-41.26V8.36ZM727.17,101.2c24.69,0,44.86-10.63,44.86-37.51s-17.5-37.51-41.57-37.51h-17.98v75.02h14.69Z"/>
      <path class="cls-1" d="M826.31,91.62c3.35,10.65,12.91,15.64,23.19,13.64,9.2-1.79,14.35-7.25,17.85-13.82l15.13,7.41c-6.53,12.25-16.62,18.52-28.28,20.78-22.25,4.32-43.05-7.71-47.56-30.88-4.5-23.17,10.28-42.13,32.52-46.45,20.56-4,37.33,7.71,42.31,33.34l.98,5.06-56.15,10.91ZM861.36,70.47c-2.24-10.71-10.61-16.09-22.12-13.85-10.89,2.12-16.3,10.33-15.62,21.19l37.74-7.34Z"/>
      <path class="cls-1" d="M942.55,64.78c-3.6-5-8.28-7.66-14.69-7.66-5,0-10.94,2.35-10.94,7.97,0,13.44,40.48,2.5,40.48,31.73,0,17.82-17.03,24.07-32.35,24.07-11.56,0-21.57-2.97-29.22-11.57l12.5-11.72c4.85,5.31,9.85,9.22,17.82,9.22,5.47,0,12.51-2.66,12.51-8.6,0-15.47-40.48-3.28-40.48-31.88,0-16.72,15-24.23,30.16-24.23,10,0,20.63,3.13,26.73,11.41l-12.5,11.25Z"/>
      <path class="cls-2" d="M984.54,0c9.09,0,16.13,6.41,16.13,14.89s-7.03,14.89-16.13,14.89-15.71-7.03-15.71-14.89,6.62-14.89,15.71-14.89Z"/>
      <rect class="cls-1" x="975.37" y="43.99" width="18.76" height="75.02"/>
      <path class="cls-1" d="M1092.9,43.99v68.3c0,27.04-13.13,44.23-42.36,44.23-13.91,0-26.57-2.97-37.2-12.34l11.25-15.32c7.5,6.88,15.31,10.79,25.79,10.79,18.13,0,23.76-10.32,23.76-25.16v-5.47h-.32c-5.47,7.35-15.16,10.94-24.54,10.94-22.5,0-37.35-17.19-37.35-38.44s13.91-39.39,37.04-39.39c10.47,0,20.32,4.07,25.79,13.13h.31v-11.25h17.82ZM1030.7,81.35c0,11.88,9.38,21.73,22.04,21.73,13.91,0,22.35-9.53,22.35-22.04s-8.6-22.04-22.19-22.04-22.19,9.07-22.19,22.35Z"/>
      <path class="cls-1" d="M1114.29,43.99h17.82v12.03h.31c3.44-7.5,10.47-13.91,22.98-13.91,20.16,0,27.35,14.23,27.35,29.54v47.36h-18.76v-37.98c0-8.28-.62-22.04-13.75-22.04-12.35,0-17.19,9.07-17.19,19.07v40.95h-18.75V43.99Z"/>
    </g>
  </g>
</svg>